<?xml version="1.0" encoding="UTF-8"?>
<svg id="Layer_1" data-name="Layer 1" xmlns="http://www.w3.org/2000/svg" viewBox="0 0 1609.66 400">
  <defs>
    <style>
      .cls-1 {
        fill: #1b1b1c;
      }

      .cls-1, .cls-2 {
        fill-rule: evenodd;
      }

      .cls-2 {
        fill: #ffd43a;
      }
    </style>
  </defs>
  <g>
    <path class="cls-1" d="M.91,98.46h101.68c47.91,0,81.13,30.69,81.13,75.22s-34.23,75.22-81.13,75.22h-42.01v64.33H.97V98.46h-.05ZM97.71,193.48c14.65,0,24.47-8.91,24.47-19.8,0-11.86-9.77-19.8-24.47-19.8h-37.13v39.6h37.13Z"/>
    <path class="cls-1" d="M205.66,209.52c0-60.47,51.88-111.07,113.32-111.07s113.32,50.6,113.32,111.07-51.88,111.07-113.32,111.07-113.32-51.56-113.32-111.07M371.83,209.52c0-30.74-24.04-55.53-52.85-55.53s-52.85,25.81-52.85,55.53,24.04,56.55,52.85,56.55,52.85-26.77,52.85-56.55"/>
    <polygon class="cls-1" points="622.45 258.78 622.45 313.19 461.6 313.19 461.6 98.46 521.8 98.46 521.8 258.78 622.45 258.78 622.45 258.78"/>
    <polygon class="cls-1" points="706.59 152.86 706.59 176.63 809.87 176.63 809.87 231.04 706.59 231.04 706.59 258.78 819.91 258.78 819.91 313.19 644.4 313.19 644.4 98.46 819.91 98.46 819.91 152.86 706.59 152.86 706.59 152.86"/>
    <path class="cls-1" d="M834.55,283.89l33.48-40.67c21.68,16.85,45.34,26.77,70.93,26.77,16.74,0,25.59-5.96,25.59-14.86,0-9.93-7.89-11.91-37.45-18.83-46.3-10.89-82.74-22.8-82.74-67.44s33.48-70.4,84.72-70.4c37.45,0,66,9.93,89.66,28.76l-30.53,42.66c-19.69-14.86-41.37-21.84-61.06-21.84-14.76,0-21.68,5.96-21.68,13.9,0,10.89,7.89,14.86,38.42,20.82,50.22,10.89,80.8,23.82,80.8,65.46,0,45.61-34.5,72.38-88.64,72.38-37.45,0-74.85-11.91-101.46-36.7"/>
    <polygon class="cls-1" points="1101.81 152.86 1039.3 152.86 1039.3 98.46 1222.11 98.46 1222.11 152.86 1160.51 152.86 1160.51 313.19 1101.81 313.19 1101.81 152.86 1101.81 152.86"/>
    <path class="cls-1" d="M1541.78,319.57l-44.64-66.21h-18.46v66.21h-59.18V98.46h100.87c47.54,0,80.54,31.6,80.54,77.42,0,31.6-15.51,56.07-41.69,69.27l50.44,75.39h-67.93v-1.02h0l.05.05ZM1478.69,196.27h36.86c14.54,0,24.25-9.18,24.25-20.39,0-12.23-9.71-20.39-24.25-20.39h-36.86v40.78h0Z"/>
    <polygon class="cls-2" points="1309.83 0 1261.33 152.97 1105.08 152.97 1232.19 246.92 1183.69 399.89 1309.83 305.89 1436.94 399.89 1388.44 246.92 1514.58 154.96 1358.39 152.97 1309.83 0 1309.83 0"/>
  </g>
  <g>
    <path d="M0,399.09l29.4-64.92h9.18l29.51,64.92h-9.77l-26.24-59.77h3.7l-26.24,59.77H0ZM12.5,382.83l2.52-7.4h36.54l2.68,7.4H12.5Z"/>
    <path d="M153.88,399.09v-64.92h7.62l42.98,53.33h-3.97v-53.33h9.28v64.92h-7.62l-42.98-53.33h3.97v53.33h-9.28Z"/>
    <path d="M295.53,399.09l29.4-64.92h9.18l29.51,64.92h-9.77l-26.24-59.77h3.7l-26.24,59.77h-9.55ZM308.03,382.83l2.52-7.4h36.54l2.68,7.4h-41.74Z"/>
    <path d="M449.36,399.09v-64.92h9.28v56.87h35.14v8.05h-44.43Z"/>
    <path d="M605.39,399.09v-24.84l2.15,5.74-27.9-45.82h9.93l23.45,38.69h-5.37l23.55-38.69h9.18l-27.85,45.82,2.04-5.74v24.84h-9.18Z"/>
    <path d="M748.44,399.09v-56.87h-22.27v-8.05h53.71v8.05h-22.27v56.87h-9.18Z"/>
    <path d="M865.67,399.09v-64.92h9.28v64.92h-9.28Z"/>
    <path d="M995.04,399.84c-4.94,0-9.5-.8-13.68-2.47-4.19-1.66-7.78-3.97-10.84-6.98-3.06-3-5.47-6.49-7.19-10.52-1.72-4.02-2.58-8.42-2.58-13.25s.86-9.23,2.58-13.25c1.72-4.02,4.13-7.51,7.24-10.52,3.11-3,6.71-5.31,10.89-6.98,4.19-1.66,8.75-2.47,13.68-2.47s9.66.86,13.84,2.58c4.24,1.72,7.83,4.24,10.78,7.57l-6.01,5.85c-2.47-2.58-5.26-4.51-8.37-5.79-3.11-1.29-6.38-1.88-9.93-1.88s-7.03.64-10.14,1.88c-3.11,1.23-5.85,2.95-8.1,5.2-2.31,2.2-4.08,4.88-5.31,7.94-1.29,3.06-1.88,6.38-1.88,9.98s.64,6.92,1.88,9.98c1.29,3.06,3.06,5.69,5.31,7.94,2.31,2.2,4.99,3.97,8.1,5.2,3.11,1.23,6.49,1.88,10.14,1.88s6.81-.64,9.93-1.88c3.11-1.29,5.85-3.22,8.37-5.9l6.01,5.85c-2.95,3.33-6.6,5.9-10.78,7.62-4.24,1.72-8.91,2.58-13.95,2.58v-.16Z"/>
    <path d="M1130.46,399.84c-4.94,0-9.66-.75-14.22-2.25-4.51-1.5-8.05-3.49-10.68-5.9l3.43-7.24c2.47,2.15,5.63,3.97,9.44,5.37,3.81,1.45,7.83,2.15,11.97,2.15,3.76,0,6.81-.43,9.18-1.29,2.36-.86,4.08-2.04,5.2-3.59s1.66-3.22,1.66-5.15c0-2.2-.75-4.02-2.2-5.37s-3.33-2.47-5.63-3.27c-2.31-.86-4.88-1.56-7.67-2.2-2.79-.59-5.58-1.34-8.42-2.2-2.79-.86-5.37-1.88-7.73-3.22-2.31-1.29-4.19-3.06-5.63-5.26-1.45-2.2-2.15-5.04-2.15-8.48s.86-6.44,2.63-9.23c1.77-2.79,4.51-5.1,8.16-6.76,3.7-1.72,8.37-2.58,14.06-2.58,3.76,0,7.51.48,11.21,1.5,3.7.97,6.92,2.41,9.66,4.29l-3.06,7.4c-2.79-1.88-5.74-3.22-8.8-4.02-3.11-.86-6.12-1.23-9.01-1.23-3.65,0-6.65.48-9.01,1.4-2.36.91-4.08,2.15-5.15,3.7s-1.61,3.27-1.61,5.2c0,2.31.75,4.13,2.2,5.47s3.33,2.47,5.63,3.27,4.88,1.5,7.67,2.2c2.79.64,5.58,1.4,8.42,2.2,2.79.8,5.37,1.88,7.73,3.17s4.19,3.06,5.63,5.2c1.4,2.15,2.15,4.94,2.15,8.37s-.91,6.33-2.68,9.12-4.56,5.1-8.32,6.76c-3.76,1.72-8.48,2.58-14.16,2.58l.11-.11Z"/>
  </g>
</svg>