<svg id="Group_4" data-name="Group 4" xmlns="http://www.w3.org/2000/svg" width="90.317" height="70.341" viewBox="0 0 90.317 70.341">
  <g id="Group_3" data-name="Group 3">
    <path id="Path_1" data-name="Path 1" d="M9.19,25.95H20.757l-.529,2.678H16.4V42H13.113V28.628H9.19Z" transform="translate(-9.07 -16.592)" fill="#002d9c"/>
    <path id="Path_2" data-name="Path 2" d="M38.82,24.2l3.164-.738a16.13,16.13,0,0,1,.209,2.886V28.7c0,.371-.047.853-.047.993a5.177,5.177,0,0,1,3.347-1.271,3.168,3.168,0,0,1,3.07,1.684,4.96,4.96,0,0,1,.3,2.2V40.57H45.834V32.627c0-1.177-.324-1.616-1.2-1.616A4.072,4.072,0,0,0,42.184,32.1v8.476H39.042V26.9a12.235,12.235,0,0,0-.222-2.7" transform="translate(-26.067 -15.163)" fill="#002d9c"/>
    <path id="Path_3" data-name="Path 3" d="M76.313,44.235l1.2,1.846a6.786,6.786,0,0,1-4.455,1.641c-3.394,0-5.59-2.4-5.59-6.118a6.472,6.472,0,0,1,1.479-4.69,4.648,4.648,0,0,1,3.718-1.595,4.826,4.826,0,0,1,3.419,1.249c1.087,1.109,1.569,2.7,1.569,5.172v.716H70.817v.094c0,1.825.9,2.865,2.494,2.865a4.651,4.651,0,0,0,3-1.181m-5.449-4.042h3.581v-.141a3.044,3.044,0,0,0-.371-1.778,1.5,1.5,0,0,0-1.364-.691c-1.177,0-1.846.925-1.846,2.562Z" transform="translate(-42.502 -21.966)" fill="#002d9c"/>
    <path id="Path_4" data-name="Path 4" d="M8.91,72.554h3.419l1.386,6.327a42.655,42.655,0,0,1,.853,5.287c.068-.622.345-2.912.831-5.129l1.433-6.489h3.535l1.479,7.184c.3,1.5.695,4.251.695,4.251.047-.507.6-4,.878-5.334l1.317-6.1H28.13l-3.88,16.189H20.716l-1.437-6.536a45.1,45.1,0,0,1-.763-4.664s-.324,2.264-.785,4.618l-1.317,6.583H12.743Z" transform="translate(-8.91 -43.323)" fill="#002d9c"/>
    <path id="Path_5" data-name="Path 5" d="M64.123,90.765l1.2,1.846a6.786,6.786,0,0,1-4.456,1.642c-3.394,0-5.59-2.4-5.59-6.118a6.472,6.472,0,0,1,1.479-4.69,4.648,4.648,0,0,1,3.718-1.595A4.826,4.826,0,0,1,63.9,83.1c1.087,1.109,1.569,2.7,1.569,5.172v.716H58.627v.094c0,1.825.9,2.865,2.494,2.865a4.606,4.606,0,0,0,3-1.181m-5.449-4.038h3.581v-.141a3.045,3.045,0,0,0-.371-1.778,1.5,1.5,0,0,0-1.364-.691c-1.177,0-1.846.925-1.846,2.562Z" transform="translate(-35.51 -48.658)" fill="#002d9c"/>
    <path id="Path_6" data-name="Path 6" d="M82.782,83.463a8.827,8.827,0,0,1,1.919-.972,7.986,7.986,0,0,1,3.232-.691c1.987,0,3.347.738,3.812,2.055a5.965,5.965,0,0,1,.209,2.123l-.068,3.974v.209a2.416,2.416,0,0,0,1.109,2.426L91.351,94.48a3.287,3.287,0,0,1-1.663-1.433,5.013,5.013,0,0,1-.716.622,4.1,4.1,0,0,1-2.379.648c-2.631,0-4.063-1.339-4.063-3.7,0-2.771,1.919-4.063,5.683-4.063.23,0,.371,0,.691.021v-.486c0-1.317-.256-1.757-1.386-1.757A6.532,6.532,0,0,0,84.1,85.676Zm6.071,5.244h-.141c-2.149,0-2.886.392-2.886,1.8a1.4,1.4,0,0,0,1.364,1.548,2.23,2.23,0,0,0,1.616-.81Z" transform="translate(-51.141 -48.629)" fill="#002d9c"/>
    <path id="Path_7" data-name="Path 7" d="M115.758,77.176l-.785,2.055h-1.987V85.26c0,1.5.277,1.893,1.339,1.893a4.029,4.029,0,0,0,1.109-.23l.392,1.846a6.466,6.466,0,0,1-2.516.533c-1.569,0-2.84-.691-3.185-1.731a4.351,4.351,0,0,1-.209-1.825V79.231H108.74V77.223h1.177a20.907,20.907,0,0,1,.115-2.818l3.142-.785a35.022,35.022,0,0,0-.183,3.556h2.767Z" transform="translate(-66.176 -43.937)" fill="#002d9c"/>
    <path id="Path_8" data-name="Path 8" d="M126.83,70.358l3.164-.738a16.13,16.13,0,0,1,.209,2.886v2.358c0,.371-.047.853-.047.993a5.177,5.177,0,0,1,3.347-1.271,3.168,3.168,0,0,1,3.07,1.684,4.961,4.961,0,0,1,.3,2.2v8.267h-3.027V78.787c0-1.177-.324-1.616-1.2-1.616a4.072,4.072,0,0,0-2.447,1.087v8.476h-3.142V73.056a12.163,12.163,0,0,0-.222-2.7" transform="translate(-76.553 -41.642)" fill="#002d9c"/>
    <path id="Path_9" data-name="Path 9" d="M164.323,90.385l1.2,1.846a6.786,6.786,0,0,1-4.456,1.641c-3.394,0-5.59-2.4-5.59-6.118a6.472,6.472,0,0,1,1.479-4.69,4.648,4.648,0,0,1,3.718-1.595,4.826,4.826,0,0,1,3.419,1.249c1.087,1.109,1.569,2.7,1.569,5.172v.716h-6.835V88.7c0,1.825.9,2.865,2.494,2.865a4.6,4.6,0,0,0,3-1.181m-5.449-4.042h3.581V86.2a3.044,3.044,0,0,0-.371-1.778,1.5,1.5,0,0,0-1.364-.691c-1.177,0-1.846.925-1.846,2.562Z" transform="translate(-92.988 -48.44)" fill="#002d9c"/>
    <path id="Path_10" data-name="Path 10" d="M183.38,82.108l2.771-.738a3.807,3.807,0,0,1,.486,1.684,5.326,5.326,0,0,1,1.757-1.5,2.761,2.761,0,0,1,1.015-.183,2.385,2.385,0,0,1,1.155.256l-.853,2.724a1.737,1.737,0,0,0-.9-.23,2.461,2.461,0,0,0-1.893.993v8.361h-3.1v-7.9a10.767,10.767,0,0,0-.443-3.466" transform="translate(-108.992 -48.382)" fill="#002d9c"/>
    <path id="Path_11" data-name="Path 11" d="M20.7,120.062l-1.454,2.2a4.227,4.227,0,0,0-2.562-.9,3.325,3.325,0,0,0-2.724,1.386,7.389,7.389,0,0,0-.9,4.136c0,2.2.183,3.419.669,4.3a3.342,3.342,0,0,0,3.1,1.8,4.172,4.172,0,0,0,2.426-.785c.094-.068.209-.162.324-.256l1.479,2.034a6.556,6.556,0,0,1-4.455,1.5,6.556,6.556,0,0,1-5.244-2.217,8.378,8.378,0,0,1-1.94-5.752,10.252,10.252,0,0,1,1.087-4.988,6.9,6.9,0,0,1,6.144-3.718,6.522,6.522,0,0,1,4.055,1.262" transform="translate(-9.197 -69.853)" fill="#002d9c"/>
    <path id="Path_12" data-name="Path 12" d="M43.522,128.97a4.948,4.948,0,0,1,4.016,1.778,6.143,6.143,0,0,1,1.364,4.319,6.392,6.392,0,0,1-1.479,4.571,4.829,4.829,0,0,1-3.9,1.641c-3.211,0-5.312-2.4-5.312-6.118s2.123-6.191,5.312-6.191m.043,2.285a1.671,1.671,0,0,0-1.595,1.2,11.19,11.19,0,0,0,.068,5.611,1.713,1.713,0,0,0,1.569.972c1.339,0,1.919-1.2,1.919-4a5.507,5.507,0,0,0-.622-3.164,1.644,1.644,0,0,0-1.339-.627" transform="translate(-25.718 -75.687)" fill="#002d9c"/>
    <path id="Path_13" data-name="Path 13" d="M67.4,129.4l2.793-.763a3.053,3.053,0,0,1,.418,1.2,4.078,4.078,0,0,1,2.886-1.2,3.19,3.19,0,0,1,2.4.972,3.894,3.894,0,0,1,.46.576A4.343,4.343,0,0,1,79.7,128.64a3.666,3.666,0,0,1,2.332.738c.669.576.878,1.271.878,2.886v8.408h-3v-7.807c0-1.407-.162-1.684-.972-1.684a3.522,3.522,0,0,0-2.055.993v8.5H73.953V132.98c0-1.479-.209-1.825-1.062-1.825a3.279,3.279,0,0,0-2.034.9v8.613H67.831v-8.246A6.005,6.005,0,0,0,67.4,129.4" transform="translate(-42.462 -75.498)" fill="#002d9c"/>
    <path id="Path_14" data-name="Path 14" d="M110.63,128.686l2.75-.486a5.354,5.354,0,0,1,.209,1.109A3.962,3.962,0,0,1,116.5,128.2a4.277,4.277,0,0,1,2.332.716c1.271.853,2.2,2.379,2.2,5.1,0,2.541-.392,3.859-1.641,5.15a4.223,4.223,0,0,1-3.164,1.339,4.968,4.968,0,0,1-2.473-.622,9,9,0,0,1,.047.972v3.7l-2.98.785V131.666a15.21,15.21,0,0,0-.188-2.98m3.185,8.685a2.921,2.921,0,0,0,1.71.695c1.522,0,2.123-1.04,2.123-3.743a8.49,8.49,0,0,0-.3-2.609,1.423,1.423,0,0,0-1.479-.993,2.859,2.859,0,0,0-2.055.9v5.752Z" transform="translate(-67.26 -75.246)" fill="#002d9c"/>
    <path id="Path_15" data-name="Path 15" d="M139.272,129.813a8.826,8.826,0,0,1,1.919-.972,7.986,7.986,0,0,1,3.232-.691c1.987,0,3.347.738,3.812,2.055a5.965,5.965,0,0,1,.209,2.123l-.068,3.974v.209a2.416,2.416,0,0,0,1.109,2.426l-1.642,1.893a3.288,3.288,0,0,1-1.663-1.433,5.012,5.012,0,0,1-.716.622,4.063,4.063,0,0,1-2.379.648c-2.635,0-4.063-1.339-4.063-3.7,0-2.771,1.919-4.063,5.683-4.063.23,0,.371,0,.691.021v-.486c0-1.317-.256-1.757-1.386-1.757a6.532,6.532,0,0,0-3.419,1.339Zm6.071,5.244h-.136c-2.149,0-2.886.392-2.886,1.8a1.4,1.4,0,0,0,1.364,1.548,2.23,2.23,0,0,0,1.616-.81Z" transform="translate(-83.546 -75.217)" fill="#002d9c"/>
    <path id="Path_16" data-name="Path 16" d="M166.91,129.2l2.75-.785a3.034,3.034,0,0,1,.439,1.479,10.413,10.413,0,0,1,1.364-.878,4.861,4.861,0,0,1,2.123-.507,2.932,2.932,0,0,1,2.84,1.71,4.761,4.761,0,0,1,.23,1.684v8.638h-3.049v-7.692c0-1.339-.23-1.731-1.04-1.731a3.605,3.605,0,0,0-2.149,1.062v8.361h-3.1v-8.57a8.55,8.55,0,0,0-.414-2.771" transform="translate(-99.545 -75.372)" fill="#002d9c"/>
    <path id="Path_17" data-name="Path 17" d="M193.28,129.111l3.164-.371,2.055,6.882c.209.716.622,2.447.622,2.447s.23-1.317.371-1.893c.183-.738.23-.853.46-1.641l1.778-5.611h3.257l-4.3,11.985c-.81,2.285-1.407,3.279-2.264,3.9a6.272,6.272,0,0,1-2.865,1.087l-1.062-2.034a6.919,6.919,0,0,0,1.919-.785,3.631,3.631,0,0,0,.878-.968,7.261,7.261,0,0,0,.669-1.386h-.785c-.183-.554-.277-.785-.486-1.386-.23-.716-.6-1.893-.623-1.94Z" transform="translate(-114.671 -75.555)" fill="#002d9c"/>
    <path id="Path_18" data-name="Path 18" d="M122.51,4c-.46,1.164-.9,2.247-1.313,3.334a20.369,20.369,0,0,0-1.151,8.979,15.36,15.36,0,0,1-.375,6.187,8.854,8.854,0,0,1-7.739,6.361,9.21,9.21,0,0,1-9.384-4.208,9.409,9.409,0,0,1,5.53-14.569c1.833-.5,3.722-.785,5.568-1.232a21.279,21.279,0,0,0,8.207-4.345c.2-.149.392-.3.657-.507" transform="translate(-61.664 -4)" fill="#33b1ff"/>
  </g>
</svg>
